<mxfile host="app.diagrams.net" modified="2024-01-03T21:00:30.483Z" agent="Mozilla/5.0 (Windows NT 10.0; Win64; x64) AppleWebKit/537.36 (KHTML, like Gecko) Chrome/120.0.0.0 Safari/537.36" etag="BxqJDtjyngANHJH6tiH3" version="22.1.16" type="device">
  <diagram name="Página-1" id="f7mHCUwq6N8ndEVU8rD0">
    <mxGraphModel dx="1173" dy="624" grid="1" gridSize="10" guides="1" tooltips="1" connect="1" arrows="1" fold="1" page="1" pageScale="1" pageWidth="1169" pageHeight="827" math="0" shadow="0">
      <root>
        <mxCell id="0" />
        <mxCell id="1" parent="0" />
        <mxCell id="M4Onlk6T4Xc8jAmXvOfX-1" value="" style="rounded=0;whiteSpace=wrap;html=1;" vertex="1" parent="1">
          <mxGeometry x="334" y="50" width="500" height="690" as="geometry" />
        </mxCell>
        <mxCell id="M4Onlk6T4Xc8jAmXvOfX-7" style="edgeStyle=orthogonalEdgeStyle;rounded=0;orthogonalLoop=1;jettySize=auto;html=1;exitX=0.5;exitY=0.5;exitDx=0;exitDy=0;exitPerimeter=0;entryX=0;entryY=0.5;entryDx=0;entryDy=0;" edge="1" parent="1" source="M4Onlk6T4Xc8jAmXvOfX-2" target="M4Onlk6T4Xc8jAmXvOfX-4">
          <mxGeometry relative="1" as="geometry" />
        </mxCell>
        <mxCell id="M4Onlk6T4Xc8jAmXvOfX-2" value="Usuario&lt;br&gt;" style="shape=umlActor;verticalLabelPosition=bottom;verticalAlign=top;html=1;outlineConnect=0;" vertex="1" parent="1">
          <mxGeometry x="210" y="100" width="30" height="60" as="geometry" />
        </mxCell>
        <mxCell id="M4Onlk6T4Xc8jAmXvOfX-3" value="Base de datos" style="shape=umlActor;verticalLabelPosition=bottom;verticalAlign=top;html=1;outlineConnect=0;" vertex="1" parent="1">
          <mxGeometry x="900" y="100" width="30" height="60" as="geometry" />
        </mxCell>
        <mxCell id="M4Onlk6T4Xc8jAmXvOfX-4" value="CU01&lt;br&gt;Crear categoría de gasto" style="ellipse;whiteSpace=wrap;html=1;" vertex="1" parent="1">
          <mxGeometry x="525" y="80" width="120" height="80" as="geometry" />
        </mxCell>
        <mxCell id="M4Onlk6T4Xc8jAmXvOfX-5" value="CU02" style="ellipse;whiteSpace=wrap;html=1;" vertex="1" parent="1">
          <mxGeometry x="524" y="180" width="120" height="80" as="geometry" />
        </mxCell>
        <mxCell id="M4Onlk6T4Xc8jAmXvOfX-6" value="&lt;p style=&quot;text-indent: -18pt;&quot; class=&quot;MsoListParagraphCxSpFirst&quot;&gt;&lt;/p&gt;&lt;div style=&quot;text-align: left;&quot;&gt;&lt;font style=&quot;font-size: 12px;&quot;&gt;&lt;span style=&quot;text-indent: -18pt; background-color: initial;&quot;&gt;1.&amp;nbsp;&lt;/span&gt;&lt;span style=&quot;background-color: initial; text-indent: -18pt; line-height: 107%;&quot;&gt;&lt;/span&gt;&lt;span style=&quot;text-indent: -18pt; background-color: initial; line-height: 107%;&quot;&gt;Como usuario registrado, puedo crear, leer, actualizar&lt;/span&gt;&lt;/font&gt;&lt;/div&gt;&lt;font style=&quot;font-size: 12px;&quot;&gt;&lt;div style=&quot;text-align: left;&quot;&gt;&lt;span style=&quot;text-indent: -18pt; background-color: initial;&quot;&gt;o eliminar categorías de gasto, para organizar mejor los gastos registrados&lt;/span&gt;&lt;/div&gt;&lt;/font&gt;&lt;p&gt;&lt;/p&gt;&lt;p style=&quot;text-indent: -18pt;&quot; class=&quot;MsoListParagraphCxSpMiddle&quot;&gt;&lt;/p&gt;&lt;div style=&quot;text-align: left;&quot;&gt;&lt;font style=&quot;font-size: 12px;&quot;&gt;&lt;span style=&quot;text-indent: -18pt; background-color: initial;&quot;&gt;2.&lt;/span&gt;&lt;span style=&quot;text-indent: -18pt; background-color: initial; font-variant-numeric: normal; font-variant-east-asian: normal; font-variant-alternates: normal; font-kerning: auto; font-optical-sizing: auto; font-feature-settings: normal; font-variation-settings: normal; font-variant-position: normal; font-stretch: normal; line-height: normal; font-family: &amp;quot;Times New Roman&amp;quot;;&quot;&gt;&amp;nbsp;&lt;/span&gt;&lt;/font&gt;&lt;span style=&quot;background-color: initial; text-indent: -18pt;&quot;&gt;Como usuario registrado, puedo crear, leer, actualizar&lt;/span&gt;&lt;/div&gt;&lt;span style=&quot;line-height: 107%;&quot;&gt;&lt;div style=&quot;text-align: left;&quot;&gt;&lt;span style=&quot;text-indent: -18pt; background-color: initial;&quot;&gt;&lt;font style=&quot;font-size: 12px;&quot;&gt;o eliminar gastos que estén relacionados a una categoría de gasto.&lt;/font&gt;&lt;/span&gt;&lt;/div&gt;&lt;/span&gt;&lt;p&gt;&lt;/p&gt;&lt;p style=&quot;text-indent: -18pt;&quot; class=&quot;MsoListParagraphCxSpMiddle&quot;&gt;&lt;/p&gt;&lt;div style=&quot;text-align: left;&quot;&gt;&lt;font style=&quot;font-size: 12px;&quot;&gt;&lt;span style=&quot;text-indent: -18pt; background-color: initial;&quot;&gt;3.&amp;nbsp;&lt;/span&gt;&lt;/font&gt;&lt;span style=&quot;background-color: initial; text-indent: -18pt;&quot;&gt;Como usuario registrado, puedo filtrar y ordenar&lt;/span&gt;&lt;/div&gt;&lt;span style=&quot;line-height: 107%;&quot;&gt;&lt;font style=&quot;font-size: 12px;&quot;&gt;&lt;div style=&quot;text-align: left;&quot;&gt;&lt;span style=&quot;text-indent: -18pt; background-color: initial;&quot;&gt;gastos de acuerdo con los campos que tenga la entidad gasto, para encontrar&lt;/span&gt;&lt;/div&gt;&lt;div style=&quot;text-align: left;&quot;&gt;&lt;span style=&quot;text-indent: -18pt; background-color: initial;&quot;&gt;rápidamente algún gasto especifico.&lt;/span&gt;&lt;/div&gt;&lt;/font&gt;&lt;/span&gt;&lt;p&gt;&lt;/p&gt;&lt;p style=&quot;text-indent: -18pt;&quot; class=&quot;MsoListParagraphCxSpMiddle&quot;&gt;&lt;/p&gt;&lt;div style=&quot;text-align: left;&quot;&gt;&lt;font style=&quot;font-size: 12px;&quot;&gt;&lt;span style=&quot;text-indent: -18pt; background-color: initial;&quot;&gt;4.&lt;/span&gt;&lt;span style=&quot;text-indent: -18pt; background-color: initial; font-variant-numeric: normal; font-variant-east-asian: normal; font-variant-alternates: normal; font-kerning: auto; font-optical-sizing: auto; font-feature-settings: normal; font-variation-settings: normal; font-variant-position: normal; font-stretch: normal; line-height: normal; font-family: &amp;quot;Times New Roman&amp;quot;;&quot;&gt;&amp;nbsp;&lt;/span&gt;&lt;/font&gt;&lt;span style=&quot;background-color: initial; text-indent: -18pt;&quot;&gt;Como usuario registrado, puedo obtener el total de&lt;/span&gt;&lt;/div&gt;&lt;span style=&quot;line-height: 107%;&quot;&gt;&lt;font style=&quot;font-size: 12px;&quot;&gt;&lt;div style=&quot;text-align: left;&quot;&gt;&lt;span style=&quot;text-indent: -18pt; background-color: initial;&quot;&gt;gastos: General(Todas las categorías), Por Categoría, Por Mes , para tener&lt;/span&gt;&lt;/div&gt;&lt;div style=&quot;text-align: left;&quot;&gt;&lt;span style=&quot;text-indent: -18pt; background-color: initial;&quot;&gt;información precisa de los gastos registrados.&lt;/span&gt;&lt;/div&gt;&lt;/font&gt;&lt;/span&gt;&lt;p&gt;&lt;/p&gt;&lt;p style=&quot;text-indent: -18pt;&quot; class=&quot;MsoListParagraphCxSpLast&quot;&gt;&lt;/p&gt;&lt;div style=&quot;text-align: left;&quot;&gt;&lt;font style=&quot;font-size: 12px;&quot;&gt;&lt;span style=&quot;text-indent: -18pt; background-color: initial;&quot;&gt;5.&lt;/span&gt;&lt;span style=&quot;text-indent: -18pt; background-color: initial; font-variant-numeric: normal; font-variant-east-asian: normal; font-variant-alternates: normal; font-kerning: auto; font-optical-sizing: auto; font-feature-settings: normal; font-variation-settings: normal; font-variant-position: normal; font-stretch: normal; line-height: normal; font-family: &amp;quot;Times New Roman&amp;quot;;&quot;&gt;&amp;nbsp;&lt;/span&gt;&lt;/font&gt;&lt;span style=&quot;background-color: initial; text-indent: -18pt;&quot;&gt;Como usuario registrado, puedo generar un grafico de&lt;/span&gt;&lt;/div&gt;&lt;span style=&quot;line-height: 107%;&quot;&gt;&lt;div style=&quot;text-align: left;&quot;&gt;&lt;span style=&quot;text-indent: -18pt; background-color: initial;&quot;&gt;&lt;font style=&quot;font-size: 12px;&quot;&gt;gastos por categoría, para visualizar de mejor manera los gastos registrados.&lt;/font&gt;&lt;/span&gt;&lt;/div&gt;&lt;span style=&quot;font-size: 12pt; font-size: 12pt;&quot;&gt;&lt;/span&gt;&lt;/span&gt;&lt;p&gt;&lt;/p&gt;" style="rounded=0;whiteSpace=wrap;html=1;" vertex="1" parent="1">
          <mxGeometry x="1070" y="130" width="440" height="260" as="geometry" />
        </mxCell>
        <mxCell id="M4Onlk6T4Xc8jAmXvOfX-8" style="edgeStyle=orthogonalEdgeStyle;rounded=0;orthogonalLoop=1;jettySize=auto;html=1;exitX=1;exitY=0.5;exitDx=0;exitDy=0;entryX=0.5;entryY=0.5;entryDx=0;entryDy=0;entryPerimeter=0;" edge="1" parent="1" source="M4Onlk6T4Xc8jAmXvOfX-4" target="M4Onlk6T4Xc8jAmXvOfX-3">
          <mxGeometry relative="1" as="geometry" />
        </mxCell>
      </root>
    </mxGraphModel>
  </diagram>
</mxfile>
